<svg preserveAspectRatio="none" overflow="visible" style="display: block;" width="47.1026" height="47.1026" viewBox="0 0 47.1026 47.1026" fill="none" xmlns="http://www.w3.org/2000/svg">
<g id="Group 10">
<circle id="Ellipse 6" cx="19.5513" cy="19.5513" r="21.5513" transform="matrix(-1 0 0 1 43.1026 4)" fill="#DA9EF7" stroke="black" stroke-width="4"/>
<g id="Group 8">
<path id="Polygon 2" d="M35.6112 19.0978C35.4865 17.2786 33.4806 16.1803 31.8666 17.1131L24.7246 21.2408C23.0589 22.204 23.0601 24.6094 24.7268 25.5709L31.8727 29.6917C33.5397 30.6528 35.6223 29.4489 35.6216 27.5247L35.6176 19.2762L35.6112 19.0978Z" fill="white" stroke="black" stroke-width="3"/>
<path id="Polygon 3" d="M21.2371 19.0978C21.1124 17.2786 19.1065 16.1803 17.4924 17.1131L10.3504 21.2408C8.68478 22.204 8.68596 24.6094 10.3526 25.5709L17.4986 29.6917C19.1656 30.6528 21.2481 29.4489 21.2475 27.5247L21.2435 19.2762L21.2371 19.0978Z" fill="white" stroke="black" stroke-width="3"/>
</g>
</g>
</svg>
